<?xml version="1.0" encoding="UTF-8" standalone="no"?>
<!-- Created with Inkscape (http://www.inkscape.org/) -->

<svg
        xmlns:inkscape="http://www.inkscape.org/namespaces/inkscape"
        xmlns:sodipodi="http://sodipodi.sourceforge.net/DTD/sodipodi-0.dtd"
        width="210mm"
        height="297mm"
        viewBox="0 0 210 297"
        version="1.1"
        id="svg1"
        xml:space="preserve"
        inkscape:version="1.3 (0e150ed6c4, 2023-07-21)"
        sodipodi:docname="queen.svg"
        xmlns="http://www.w3.org/2000/svg"
><sodipodi:namedview
     id="namedview1"
     pagecolor="#ffffff"
     bordercolor="#000000"
     borderopacity="0.25"
     inkscape:showpageshadow="2"
     inkscape:pageopacity="0.0"
     inkscape:pagecheckerboard="0"
     inkscape:deskcolor="#d1d1d1"
     inkscape:document-units="mm"
     inkscape:zoom="0.52248527"
     inkscape:cx="230.62851"
     inkscape:cy="467.95578"
     inkscape:window-width="1350"
     inkscape:window-height="1237"
     inkscape:window-x="182"
     inkscape:window-y="116"
     inkscape:window-maximized="0"
     inkscape:current-layer="layer1" />
    <defs
            id="defs1"/>
    <g
            inkscape:label="Layer 1"
            inkscape:groupmode="layer"
            id="layer1"><g
       transform="matrix(0.10034744,0,0,-0.05625813,-151.55652,292.56173)"
       fill="#000000"
       stroke="none"
       id="g2"><path
         d="m 2503,5106 c -155,-51 -241,-173 -231,-330 19,-282 363,-402 555,-194 144,158 92,416 -104,505 -67,31 -160,39 -220,19 z"
         id="path1" /><path
            d="m 2277,4402 c -58,-31 -78,-36 -135,-36 -55,-1 -79,5 -136,32 -104,49 -171,41 -229,-28 -36,-43 -49,-95 -36,-144 8,-30 32,-60 101,-125 112,-107 163,-177 232,-322 90,-187 136,-379 136,-565 v -104 h -99 c -85,0 -102,-3 -131,-22 -97,-67 -111,-176 -31,-250 l 40,-38 h 136 135 v -38 c 0,-62 -19,-246 -41,-392 -36,-246 -86,-436 -166,-635 -50,-124 -233,-485 -246,-485 -24,0 -76,-34 -86,-56 -17,-38 -14,-53 20,-87 24,-24 29,-35 21,-46 -134,-209 -163,-264 -188,-356 -33,-118 -6,-301 61,-421 19,-34 35,-66 35,-71 0,-6 -17,-28 -39,-50 -37,-40 -51,-76 -51,-134 V 0 h 980 980 v 21 c 0,47 -24,111 -58,150 l -36,42 22,36 c 66,106 92,197 92,319 0,137 -62,307 -173,474 -18,26 -18,26 17,59 20,18 36,41 36,51 0,35 -29,76 -63,89 -30,10 -43,30 -119,173 -188,354 -268,598 -323,974 -19,135 -44,394 -38,405 2,4 58,7 124,7 h 119 l 40,36 c 70,63 64,153 -15,231 l -42,43 h -92 -91 v 79 c 0,101 15,211 45,331 62,247 153,410 316,570 126,124 140,159 98,247 -14,29 -35,52 -63,68 -60,35 -111,33 -189,-7 -52,-27 -73,-32 -132,-33 -62,0 -79,5 -145,38 l -75,38 -59,-35 c -111,-67 -211,-66 -324,4 -27,16 -53,30 -58,29 -5,-1 -40,-17 -77,-37 z"
            id="path2"/></g></g></svg>
