<?xml version="1.0" encoding="UTF-8" standalone="no"?>
<!-- Created with Inkscape (http://www.inkscape.org/) -->

<svg
   width="210mm"
   height="297mm"
   viewBox="0 0 210 297"
   version="1.1"
   id="svg1"
   xml:space="preserve"
   inkscape:version="1.3 (0e150ed6c4, 2023-07-21)"
   sodipodi:docname="blank.svg"
   xmlns:inkscape="http://www.inkscape.org/namespaces/inkscape"
   xmlns:sodipodi="http://sodipodi.sourceforge.net/DTD/sodipodi-0.dtd"
   xmlns="http://www.w3.org/2000/svg"
   xmlns:svg="http://www.w3.org/2000/svg"><sodipodi:namedview
   id="namedview1"
   pagecolor="#ffffff"
   bordercolor="#000000"
   borderopacity="0.25"
   inkscape:showpageshadow="2"
   inkscape:pageopacity="0.0"
   inkscape:pagecheckerboard="0"
   inkscape:deskcolor="#d1d1d1"
   inkscape:document-units="mm"
   inkscape:zoom="0.52248527"
   inkscape:cx="230.62851"
   inkscape:cy="467.95578"
   inkscape:window-width="3840"
   inkscape:window-height="1009"
   inkscape:window-x="1912"
   inkscape:window-y="-8"
   inkscape:window-maximized="1"
   inkscape:current-layer="layer1" />&#10;    <defs
   id="defs1" />&#10;    <g
   inkscape:label="Layer 1"
   inkscape:groupmode="layer"
   id="layer1"><path
     style="fill:#000000;stroke-width:0.264583"
     id="path1"
     d="m 59.736672,91.851352 c 5.771792,6.969493 11.279378,14.253968 15.368997,22.364938 1.096894,2.17547 1.992964,4.44651 2.989443,6.66977 2.176242,6.06282 4.478067,12.42481 3.856074,19.0057 -0.163282,1.72757 -0.350401,3.54954 -1.190583,5.06785 -2.27602,4.11305 -5.718608,5.1053 -9.619218,7.13284 -5.514834,1.72757 -11.256838,2.3328 -17.002579,1.66422 -1.089158,-0.12673 -3.936961,-1.51519 -3.216662,-0.68846 1.720856,1.97514 8.784003,3.34488 10.691725,3.8352 3.456403,1.22707 6.952404,2.34784 10.369206,3.68122 10.204453,3.98218 19.2727,8.11609 29.147475,12.95961 8.29251,4.06744 19.62822,10.02066 27.75119,14.74918 2.2737,1.32357 4.43771,2.82717 6.65657,4.24075 1.50894,1.28445 7.48902,4.87326 7.18503,8.50199 -0.0911,1.08758 -1.13127,1.9436 -2.02047,2.57642 -1.30501,0.92875 -2.86889,1.44478 -4.37925,1.97811 -3.45529,1.22013 -6.14076,1.54479 -9.69342,2.16242 -2.11938,0.23975 -4.52084,0.60085 -6.68759,0.55153 -0.70737,-0.0161 -1.40621,-0.15854 -2.10931,-0.23781 0,0 3.14855,2.3346 3.14855,2.3346 v 0 c 0.70645,0.0581 1.41052,0.17284 2.11936,0.17416 2.20702,0.004 4.48816,-0.36206 6.66052,-0.63059 3.45465,-0.63047 6.39764,-1.02908 9.7417,-2.24686 1.56357,-0.56939 3.19515,-1.10814 4.52493,-2.10845 0.97602,-0.73419 2.07232,-1.72412 2.18647,-2.94011 0.3581,-3.81507 -5.67863,-7.40357 -7.3469,-8.82595 -4.22343,-2.56512 -8.39447,-5.21858 -12.6703,-7.69537 -8.09249,-4.6876 -19.44646,-10.63122 -27.690277,-14.67165 -9.922965,-4.86341 -19.096352,-9.0557 -29.347355,-13.07448 -3.470289,-1.36048 -7.020208,-2.50836 -10.530314,-3.76255 -2.105239,-0.53013 -4.175762,-1.95599 -6.315718,-1.59039 -0.960456,0.16409 0.865889,1.87255 1.698138,2.37927 0.928352,0.56524 2.12235,0.49852 3.203972,0.60541 3.275034,0.32367 7.553434,0.25229 10.742242,-0.28383 2.142633,-0.36024 4.215874,-1.05309 6.323812,-1.57962 4.025326,-2.12552 7.472587,-3.13593 9.824677,-7.38733 0.856245,-1.54766 1.046586,-3.40446 1.215382,-5.16512 0.635768,-6.63148 -1.665724,-13.0445 -3.841644,-19.16211 -0.989721,-2.23279 -1.878698,-4.51302 -2.969165,-6.69838 C 74.478784,107.6559 69.041967,100.3882 63.372761,93.401572 Z" /><path
     style="fill:#000000;stroke-width:0.264583"
     id="path2"
     d="m 50.962946,59.938665 c -0.798232,1.776907 -1.910184,4.486627 -3.112149,5.916816 -3.805269,4.527794 -9.686721,7.650504 -15.430338,8.827918 -1.960094,0.401813 -3.990009,0.305785 -5.985015,0.458677 -3.579335,-0.695857 -6.782652,-0.785352 -9.694743,-3.320714 -0.312162,-0.271777 0.413687,-0.781844 0.35117,-1.19099 -0.186083,-1.217814 -1.099414,-2.304823 -1.073533,-3.5365 0.08052,-3.832146 2.649085,-5.013812 5.203202,-7.371271 2.057049,-1.098899 4.021467,-2.392317 6.171145,-3.2967 7.155558,-3.010382 16.510992,-4.998524 24.281596,-3.861041 7.400054,1.083241 6.285513,0.302953 7.925882,4.797047 0.488307,1.894393 1.567381,3.729548 1.464923,5.683178 -0.224832,4.286988 -3.632157,8.425635 -6.468967,11.17531 -3.137299,3.040935 -7.610091,5.817388 -11.432103,7.897722 -1.679392,0.914098 -3.442885,1.664412 -5.164331,2.496619 -3.269313,1.081622 -4.049879,1.578104 -7.185771,1.896623 -0.589272,0.05985 -1.187288,0.0407 -1.776833,-0.0164 -0.251148,-0.02432 -0.694703,-0.476462 -0.722548,-0.225679 -0.08757,0.788747 1.458463,1.606262 1.832012,1.862209 1.884754,1.288775 2.934475,2.099744 5.598351,2.883217 0.306408,0.09012 0.527449,-0.360317 0.791173,-0.540475 0,0 -3.33266,-2.154922 -3.33266,-2.154922 v 0 c -0.208772,0.105203 -0.780116,0.139544 -0.626319,0.315616 0.249105,0.285181 4.494419,3.151941 1.240208,0.942168 -1.011108,-0.721019 -1.08694,-1.093682 -2.34523,-0.899139 -0.250362,0.03871 0.496496,0.118314 0.74976,0.124428 0.592551,0.01431 1.18967,0.01606 1.77704,-0.06342 3.155791,-0.427083 3.855535,-0.892945 7.159194,-2.042057 1.716685,-0.848416 3.474595,-1.618075 5.150059,-2.545244 3.82961,-2.119231 8.343802,-4.946457 11.492333,-8.008342 2.926312,-2.845779 6.378524,-7.066987 6.669018,-11.466621 0.132281,-2.003436 -0.932069,-3.905925 -1.398106,-5.858886 -2.474034,-2.155714 -4.590923,-4.808119 -7.422107,-6.467139 -2.079866,-1.218763 -4.571974,-1.638739 -6.960973,-1.961075 -7.817125,-1.054722 -17.228161,0.964829 -24.419876,3.992594 -2.183921,0.919445 -4.181192,2.230964 -6.271788,3.346447 -2.717814,2.509972 -5.292029,3.679013 -5.463113,7.711236 -0.19084,4.497845 3.990075,6.576851 7.184083,8.766995 1.346702,0.923436 2.831981,1.681967 4.387425,2.178894 1.741001,0.556207 3.600318,0.632071 5.400477,0.948108 2.008463,-0.180393 4.054073,-0.116456 6.025386,-0.541181 5.828715,-1.255811 11.7495,-4.441256 15.652268,-9.009052 1.166598,-1.365385 2.409285,-4.187915 3.22744,-5.911561 z" /><path
     style="fill:#000000;stroke-width:0.264583"
     id="path3"
     d="m 63.176059,51.779228 c 1.124109,8.458014 2.580016,16.900045 2.513857,25.464693 -0.01675,2.167874 -0.213104,4.330636 -0.319654,6.495954 -0.568047,5.977422 -1.943965,11.860665 -4.428995,17.338485 -0.661742,1.4587 -1.240338,2.41792 -2.003666,3.75587 -0.06538,0.13332 -0.130765,0.26664 -0.196149,0.39996 0,0 3.475493,1.94741 3.475493,1.94741 v 0 c 0.04368,-0.12829 0.08735,-0.25657 0.131027,-0.38486 0.711374,-1.30104 1.364562,-2.44769 1.975601,-3.82664 2.456992,-5.54479 3.82238,-11.480558 4.382611,-17.509634 0.108495,-2.175542 0.303816,-4.348488 0.325485,-6.526628 0.08489,-8.533058 -1.298223,-16.952706 -2.328608,-25.392835 z" /><path
     style="fill:#000000;stroke-width:0.264583"
     id="path4"
     d="m 41.259326,45.345405 c 1.208952,0.256979 2.484268,0.299667 3.626855,0.770938 7.587128,3.129375 9.942441,5.168513 16.520382,10.407044 7.849161,6.2509 15.003333,12.114733 21.820521,19.487782 2.645436,2.861138 4.903771,6.057299 7.355654,9.085947 1.379861,2.644902 3.251253,5.086829 4.139576,7.934703 1.403072,4.498108 0.838496,8.479471 -3.338621,11.230091 -2.260224,1.48835 -4.989142,2.21028 -7.643815,2.73612 -7.473839,1.48043 -13.995905,0.61607 -21.519758,0.19955 -8.217681,-1.06711 -11.116622,-1.24865 -18.925122,-2.94827 -3.545636,-0.77176 -6.796236,-1.60908 -10.068668,-3.1124 -0.751647,-0.3453 -1.426308,-0.83812 -2.139464,-1.257187 0,0 3.037957,2.456957 3.037957,2.456957 v 0 c 0.709446,0.3905 1.385596,0.84879 2.128335,1.1715 3.264646,1.41844 6.454682,2.21241 9.971426,2.95224 7.860908,1.65373 10.592032,1.80926 18.875938,2.85388 7.488785,0.39904 14.253789,1.2657 21.697402,-0.25304 2.721755,-0.55532 5.520171,-1.31824 7.823107,-2.87157 4.277715,-2.8853 4.883857,-7.009692 3.437861,-11.6554 -0.899009,-2.888339 -2.803406,-5.361323 -4.205107,-8.041986 -2.473823,-3.053051 -4.754695,-6.273112 -7.42147,-9.15915 C 80.786834,71.223504 71.20107,62.715631 64.633871,57.796765 57.492762,52.448036 50.13685,47.165937 41.812654,43.784408 40.638923,43.307605 39.332127,43.267749 38.091864,43.00942 Z" /><path
     style="fill:#000000;stroke-width:0.264583"
     id="path5"
     d="m 126.25434,76.891435 c -0.98806,0.288395 -2.009,0.481697 -2.96418,0.865192 -5.0817,2.040247 -9.61832,5.400144 -13.16421,9.573967 -1.26561,1.489736 -2.50652,3.049532 -3.35135,4.812297 -0.70751,1.476235 -0.8222,3.169121 -1.2333,4.753681 0.69304,1.327759 0.87653,3.090508 2.07912,3.983278 2.61479,1.94116 5.64738,3.55719 8.85277,4.13227 4.29385,0.77038 16.37989,-2.28432 20.04682,-3.2721 8.20407,-2.20997 9.79982,-3.046625 17.22935,-5.961119 2.79826,-7.94e-4 4.44028,-2.729378 6.90859,-3.46996 0.21174,-0.06353 0.76421,0.408572 0.54535,0.377399 -1.20512,-0.171657 -2.42448,-1.241584 -3.56156,-0.807027 -0.77521,0.296265 -0.44721,1.599165 -0.62961,2.408772 -0.28182,1.250873 -0.50836,2.513565 -0.76254,3.770347 -0.9751,5.741578 -1.89133,11.492978 -2.81839,17.242458 -0.33124,2.05427 -1.2972,7.76774 -1.49955,10.07794 -0.10479,1.19624 -0.0685,2.40067 -0.10281,3.601 0.0888,1.05691 0.20614,3.51384 0.59092,4.66244 0.59047,1.76258 1.61312,3.02906 2.74135,4.493 0.73735,0.95676 1.52004,1.8777 2.28006,2.81655 0.77616,1.01441 1.55232,2.02882 2.32848,3.04322 1.14219,1.91209 2.41975,3.31892 2.3372,5.67759 -0.072,2.05592 -1.23491,3.08281 -2.38074,4.59972 0,0 3.34937,1.98824 3.34937,1.98824 v 0 c 1.21593,-1.62417 2.41519,-2.70657 2.53381,-4.88883 0.13484,-2.48029 -1.11085,-3.82852 -2.29806,-5.85378 -6.66272,-8.77489 1.88644,2.41643 -4.58035,-5.84086 -1.04019,-1.3282 -2.1896,-2.70137 -2.78053,-4.32136 -0.41158,-1.1283 -0.57392,-3.57074 -0.68225,-4.61432 0.0166,-1.19389 -0.0412,-2.39115 0.0499,-3.58168 0.18493,-2.41714 1.09197,-7.917 1.43979,-10.09602 0.91563,-5.73616 1.862,-11.46788 2.89023,-17.185041 0.2652,-1.241944 0.49852,-2.491126 0.79558,-3.725833 0.19575,-0.813623 0.99398,-1.639507 0.68214,-2.41607 -0.57684,-1.436438 -1.93498,-2.42916 -3.05636,-3.496212 -0.16572,-0.157683 -0.47246,-0.150836 -0.68341,-0.06236 -0.76606,0.321321 -1.4199,0.864714 -2.15447,1.252678 -1.50196,0.793263 -3.03492,1.526379 -4.55237,2.289569 -2.47508,0.98905 -4.9088,2.088611 -7.42523,2.967149 -5.66552,1.977959 -14.32174,4.49516 -20.21556,5.37324 -3.14951,0.46922 -6.34987,0.52013 -9.53249,0.62248 -0.79897,0.0257 -1.78063,0.28265 -2.38618,-0.2392 -1.09659,-0.945 -1.481,-2.487707 -2.2215,-3.731558 0.37788,-1.550805 0.45276,-3.208745 1.13365,-4.652409 0.82356,-1.746142 2.05085,-3.28839 3.30418,-4.756865 3.51767,-4.121502 8.07334,-7.45255 13.15584,-9.348491 0.9573,-0.357105 1.98038,-0.503867 2.97058,-0.755801 z" /><path
     style="fill:#000000;stroke-width:0.264583"
     id="path6"
     d="m 108.93319,192.51854 c -9.21876,5.34284 -19.529417,8.32208 -29.679696,11.31459 -9.238697,2.72375 -18.52306,5.29015 -27.782829,7.94139 -4.099925,1.25393 -18.195499,5.37384 -22.75687,7.42654 -2.126396,0.95692 -4.645534,1.74289 -5.953207,3.67349 -3.202994,4.72879 6.699438,9.99804 7.710575,10.65492 4.96589,3.22604 10.278329,5.88435 15.417495,8.82653 6.240912,3.39871 21.73859,11.72991 27.911642,15.5142 2.771835,1.69922 5.499348,3.49591 8.0275,5.54015 4.977342,4.02461 8.029358,6.7808 10.432161,12.5349 0.652674,1.563 0.75334,3.30277 1.130012,4.95414 0.250774,1.4306 0.226332,2.93801 0.752324,4.29183 1.616533,4.16079 4.129815,5.87838 7.558433,8.69844 1.67931,1.38124 3.4725,2.61819 5.18825,3.95388 3.7618,2.92852 3.54772,2.80697 6.74324,5.57935 1.03511,0.85712 7.09738,6.66801 7.63343,3.98383 0.0691,-0.34612 -0.0849,-0.7008 -0.12741,-1.05121 0,0 -3.57172,-1.72194 -3.57172,-1.72194 v 0 c 0.0917,0.24916 0.25626,0.48266 0.27499,0.74748 0.008,0.11221 -0.13538,0.1797 -0.20307,0.26956 0.89685,0.58848 1.7937,1.17697 2.69054,1.76548 1.14909,0.6912 -5.933,-3.99314 -3.11882,-2.54095 -3.17399,-2.74823 -3.11977,-2.76675 -6.83422,-5.64256 -1.71825,-1.33032 -3.51005,-2.56569 -5.20061,-3.93102 -3.26866,-2.63983 -5.996208,-4.45976 -7.586399,-8.42949 -0.544041,-1.35813 -0.513791,-2.88065 -0.770689,-4.32097 -0.380754,-1.69468 -0.478414,-3.479 -1.142267,-5.0841 -0.886896,-2.14436 -1.979017,-4.25421 -3.459165,-6.04141 -5.686393,-6.86604 -13.586954,-11.17177 -21.066564,-15.69802 -6.419765,-3.88489 -21.493072,-12.02017 -27.952572,-15.54832 -3.114387,-1.76487 -6.349111,-3.33252 -9.343165,-5.29462 -0.31069,-0.2036 -10.805875,-5.57609 -7.951613,-9.98557 1.243153,-1.92052 3.711757,-2.72865 5.789872,-3.68535 4.677423,-2.15333 18.361691,-6.17367 22.62397,-7.49019 9.277302,-2.65184 18.579539,-5.21653 27.846514,-7.90424 10.260536,-2.97587 20.661908,-5.92387 30.064418,-11.13309 z" /><path
     style="fill:#000000;stroke-width:0.264583"
     id="path7"
     d="m 176.32854,251.0228 c -6.36215,4.15704 -12.91257,8.02087 -19.39558,11.98475 -2.70671,1.65494 -5.518,3.15066 -8.11646,4.97089 -1.73349,1.21428 -4.13849,2.11082 -4.84251,4.10678 -0.42631,1.20864 1.53986,2.0492 2.30978,3.07377 5.36579,1.09358 10.64441,2.77794 16.09737,3.2807 8.89022,0.81965 42.2301,-0.23378 49.20807,-0.49641 15.55726,-0.5855 37.42046,-1.80541 53.17173,-3.08187 6.80138,-0.55118 13.58374,-1.31646 20.37559,-1.97469 9.90854,-1.22071 17.69269,-2.0112 27.32538,-3.74205 5.23255,-0.9402 13.32163,-2.38403 17.78111,-5.82187 0.83415,-0.64308 1.39279,-1.58041 2.08917,-2.37062 0,0 -3.3243,-2.00674 -3.3243,-2.00674 v 0 c -0.66112,0.76183 -1.18756,1.66571 -1.9834,2.28549 -4.36181,3.39688 -12.34717,4.90122 -17.47364,5.86846 -9.65565,1.82178 -17.06334,2.61363 -27.0451,3.91559 -6.74205,0.68993 -13.47321,1.49603 -20.22615,2.06981 -16.10465,1.36837 -37.13371,2.56818 -53.0909,3.12306 -9.17158,0.31893 -18.34813,0.55708 -27.52521,0.58246 -7.36716,0.0204 -14.72995,-0.41458 -22.09708,-0.44527 -3.24438,-0.0135 -6.48548,0.20849 -9.72822,0.31274 -0.8905,-0.86112 -3.03155,-1.39804 -2.67152,-2.58332 0.6062,-1.99572 3.00763,-2.91372 4.70811,-4.12152 2.58431,-1.83552 5.39456,-3.33025 8.10276,-4.97752 6.54042,-3.9783 13.1707,-7.80444 19.67668,-11.83831 z" /></g></svg>
