<?xml version="1.0" encoding="UTF-8" standalone="no"?>
<svg
   version="1.0"
   width="512.000000pt"
   height="512.000000pt"
   viewBox="0 0 512.000000 512.000000"
   preserveAspectRatio="xMidYMid meet"
   id="svg1"
   sodipodi:docname="white_pawn.svg"
   inkscape:version="1.3 (0e150ed6c4, 2023-07-21)"
   xmlns:inkscape="http://www.inkscape.org/namespaces/inkscape"
   xmlns:sodipodi="http://sodipodi.sourceforge.net/DTD/sodipodi-0.dtd"
   xmlns="http://www.w3.org/2000/svg"
   xmlns:svg="http://www.w3.org/2000/svg">
  <defs
     id="defs1" />
  <sodipodi:namedview
     id="namedview1"
     pagecolor="#ffffff"
     bordercolor="#000000"
     borderopacity="0.25"
     inkscape:showpageshadow="2"
     inkscape:pageopacity="0.0"
     inkscape:pagecheckerboard="0"
     inkscape:deskcolor="#d1d1d1"
     inkscape:document-units="pt"
     inkscape:zoom="1.190918"
     inkscape:cx="341.33333"
     inkscape:cy="341.33333"
     inkscape:window-width="3840"
     inkscape:window-height="1009"
     inkscape:window-x="1912"
     inkscape:window-y="-8"
     inkscape:window-maximized="1"
     inkscape:current-layer="svg1" />
  <g
     transform="translate(0.000000,512.000000) scale(0.100000,-0.100000)"
     fill="#000000"
     stroke="none"
     id="g1">
    <path
       d="M2446 4909 c-406 -55 -719 -394 -743 -804 -16 -290 115 -567 351 -742 l58 -43 -174 0 c-235 0 -308 -20 -410 -110 -54 -47 -104 -140 -113 -211 -15 -105 39 -230 132 -305 69 -56 148 -85 258 -92 l90 -7 -3 -105 c-10 -393 -183 -827 -473 -1187 -39 -48 -130 -148 -203 -221 l-131 -132 -3 -329 c-3 -362 1 -391 53 -411 36 -14 2814 -14 2850 0 52 20 56 49 53 410 l-3 328 -145 149 c-80 81 -181 195 -225 253 -268 351 -415 732 -441 1143 l-7 107 69 0 c177 0 318 79 386 218 28 57 33 76 33 142 0 66 -5 85 -33 142 -21 42 -50 82 -80 108 -102 90 -175 110 -410 110 l-174 0 58 43 c426 315 473 929 100 1301 -186 186 -463 280 -720 245z"
       id="path1" />
  </g>
  <path
     style="fill:#f9f9f9;stroke-width:0.839688"
     d="m 188.51005,655.03317 c -20.32046,-0.29347 -37.62152,-0.85433 -38.44681,-1.24634 -5.02584,-2.38734 -5.98127,-13.24164 -5.32032,-60.44198 l 0.5159,-36.8413 13.22873,-13.56758 c 15.64035,-16.04098 26.62888,-28.0826 33.0196,-36.18402 31.4362,-39.85127 52.19446,-86.28877 59.11816,-132.25092 0.73047,-4.84921 1.56216,-15.43787 1.84818,-23.53037 l 0.52006,-14.71363 -11.2558,-0.97988 c -22.38302,-1.94857 -35.60015,-8.92338 -45.27484,-23.89201 -10.77361,-16.66886 -9.84719,-34.39001 2.65365,-50.76101 4.1774,-5.4707 11.75077,-11.42811 18.60622,-14.63616 8.58717,-4.01842 16.13003,-5.04954 41.58498,-5.68467 l 22.93547,-0.57226 -7.30682,-5.40893 c -23.4007,-17.32251 -39.32333,-42.05963 -45.43235,-70.58287 -1.9224,-8.97574 -2.13517,-33.45337 -0.3686,-42.40427 9.03904,-45.799114 44.27425,-81.691114 89.94613,-91.622728 11.04134,-2.401003 32.8335,-2.213189 44.50349,0.383551 46.16218,10.271749 79.58125,43.604337 89.5664,89.334617 2.38105,10.90477 2.16654,34.35286 -0.42071,45.9882 -6.17332,27.76261 -22.38489,52.50203 -45.39496,69.2743 l -6.91186,5.03813 22.93522,0.57226 c 25.44104,0.6348 32.99853,1.6667 41.56467,5.67529 11.54076,5.40056 19.27731,13.28284 25.18626,25.66061 3.14532,6.58865 3.20683,6.90424 3.20683,16.45279 v 9.73529 l -4.00587,8.06944 c -9.89923,19.941 -28.42869,29.97864 -55.34049,29.97864 h -5.65036 l 0.36961,3.98852 c 0.20328,2.19368 0.75967,8.92003 1.23642,14.94742 3.71543,46.97282 19.10081,90.49452 46.43927,131.36601 12.03319,17.98985 21.10744,28.79375 45.70877,54.42143 l 15.56402,16.21334 0.0911,43.40453 c 0.10846,51.69927 0.0121,52.35473 -7.93574,53.99959 -4.442,0.91931 -287.31187,1.59644 -341.28357,0.81697 z"
     id="path2"
     transform="scale(0.75)" />
</svg>
